<svg width="31" height="25" viewBox="0 0 31 25" fill="none" xmlns="http://www.w3.org/2000/svg">
<g clip-path="url(#clip0_1_2696)">
<path d="M9.70171 22.6489C6.82573 21.7529 4.77495 20.476 3.31011 18.5815C1.84526 16.687 0.98833 14.1699 0.500048 10.7763C0.481148 10.6365 0.517012 10.4948 0.600146 10.3808C0.62456 9.18699 0.912646 8.28366 1.49614 7.56833C2.03325 6.90915 2.80229 6.4404 3.83257 6.07419C3.90299 5.36729 4.20712 4.70406 4.69683 4.18943C5.27064 3.60311 6.01634 3.21486 6.82573 3.08103C7.88101 2.03277 9.21747 1.31281 10.6734 1.00827C12.2183 0.665202 13.8295 0.777137 15.3121 1.33054C15.3347 1.33964 15.3567 1.35024 15.378 1.36228C15.5196 1.42575 15.7637 1.54782 15.9883 1.66013C16.0263 1.67743 16.0598 1.70334 16.086 1.73581C16.999 1.03174 18.0925 0.600101 19.2403 0.490696C20.2022 0.39204 21.1741 0.50623 22.087 0.825169C22.9389 1.10927 23.7044 1.60586 24.3111 2.26804C24.7074 2.70944 24.9884 3.24202 25.129 3.81833C26.96 4.33103 28.3541 5.18796 29.2598 6.23288C29.7673 6.78324 30.1348 7.44775 30.3312 8.17019C30.5275 8.89263 30.5469 9.65174 30.3877 10.3833C30.3783 10.4272 30.3635 10.4698 30.3438 10.5102C30.3657 10.5679 30.3765 10.6292 30.3755 10.6909C30.3767 10.7145 30.3767 10.7381 30.3755 10.7617C30.2242 13.3838 29.3843 16.0302 27.5337 18.2446C25.9542 20.1416 23.6519 21.6968 20.4268 22.6733H20.4122V24.3139C20.4122 24.3787 20.3864 24.4408 20.3407 24.4866C20.2949 24.5324 20.2328 24.5581 20.168 24.5581H10.0215C9.94296 24.5574 9.86783 24.5258 9.8125 24.47C9.75717 24.4142 9.72612 24.3388 9.72612 24.2602V22.6562H9.70659L9.70171 22.6489ZM22.5191 8.9282C22.365 8.9282 22.2172 8.86698 22.1082 8.75801C21.9993 8.64904 21.938 8.50125 21.938 8.34714C21.938 8.19304 21.9993 8.04524 22.1082 7.93627C22.2172 7.8273 22.365 7.76609 22.5191 7.76609H23.896C24.0502 7.76609 24.1979 7.8273 24.3069 7.93627C24.4159 8.04524 24.4771 8.19304 24.4771 8.34714C24.4771 8.50125 24.4159 8.64904 24.3069 8.75801C24.1979 8.86698 24.0502 8.9282 23.896 8.9282H22.5191ZM22.1724 4.9072C22.2418 4.9383 22.3044 4.98277 22.3567 5.03806C22.4089 5.09336 22.4497 5.1584 22.4768 5.22947C22.5039 5.30054 22.5167 5.37625 22.5146 5.45228C22.5124 5.52831 22.4953 5.60317 22.4642 5.67258C22.4331 5.74199 22.3886 5.8046 22.3333 5.85683C22.278 5.90905 22.213 5.94988 22.1419 5.97697C22.0708 6.00406 21.9951 6.01689 21.9191 6.01472C21.8431 6.01255 21.7682 5.99543 21.6988 5.96433L20.4415 5.39792C20.372 5.36682 20.3094 5.32236 20.2572 5.26706C20.205 5.21177 20.1642 5.14673 20.1371 5.07566C20.11 5.00458 20.0971 4.92887 20.0993 4.85284C20.1015 4.77681 20.1186 4.70195 20.1497 4.63254C20.1808 4.56313 20.2253 4.50052 20.2806 4.4483C20.3359 4.39607 20.4009 4.35524 20.472 4.32815C20.543 4.30106 20.6188 4.28823 20.6948 4.2904C20.7708 4.29257 20.8457 4.30969 20.9151 4.34079L22.1724 4.9072ZM15.1949 5.25388C15.1242 5.22486 15.0599 5.18221 15.0057 5.12835C14.9515 5.07449 14.9084 5.01048 14.8789 4.93997C14.8495 4.86947 14.8342 4.79385 14.8339 4.71743C14.8337 4.64101 14.8485 4.5653 14.8775 4.4946C14.9065 4.42391 14.9492 4.35962 15.003 4.30541C15.0569 4.2512 15.1209 4.20813 15.1914 4.17866C15.2619 4.14919 15.3375 4.13389 15.4139 4.13364C15.4904 4.1334 15.5661 4.1482 15.6368 4.17722L17.0162 4.74118C17.1602 4.79978 17.2751 4.91321 17.3356 5.05652C17.396 5.19983 17.397 5.36128 17.3384 5.50534C17.2798 5.64941 17.1664 5.7643 17.0231 5.82474C16.8798 5.88518 16.7183 5.88621 16.5743 5.82761L15.1949 5.26609V5.25388ZM14.7066 8.9282C14.5525 8.9282 14.4047 8.86698 14.2957 8.75801C14.1868 8.64904 14.1255 8.50125 14.1255 8.34714C14.1255 8.19304 14.1868 8.04524 14.2957 7.93627C14.4047 7.8273 14.5525 7.76609 14.7066 7.76609H16.086C16.2401 7.76609 16.3879 7.8273 16.4969 7.93627C16.6058 8.04524 16.667 8.19304 16.667 8.34714C16.667 8.50125 16.6058 8.64904 16.4969 8.75801C16.3879 8.86698 16.2401 8.9282 16.086 8.9282H14.7066ZM10.0215 6.13279C9.88135 6.19754 9.72118 6.20395 9.57627 6.15061C9.43136 6.09727 9.31358 5.98855 9.24883 5.84836C9.18408 5.70818 9.17767 5.54801 9.23101 5.4031C9.28435 5.25819 9.39307 5.14041 9.53325 5.07566L10.7906 4.50925C10.86 4.47831 10.9348 4.46135 11.0108 4.45933C11.0868 4.45731 11.1624 4.47027 11.2333 4.49747C11.3043 4.52468 11.3692 4.56559 11.4243 4.61788C11.4795 4.67017 11.5238 4.73281 11.5547 4.80222C11.5857 4.87163 11.6026 4.94646 11.6047 5.02243C11.6067 5.09839 11.5937 5.17402 11.5665 5.24498C11.5393 5.31593 11.4984 5.38084 11.4461 5.43599C11.3938 5.49113 11.3312 5.53544 11.2618 5.56638L10.0215 6.13279ZM7.31157 8.9282C7.15747 8.9282 7.00967 8.86698 6.9007 8.75801C6.79174 8.64904 6.73052 8.50125 6.73052 8.34714C6.73052 8.19304 6.79174 8.04524 6.9007 7.93627C7.00967 7.8273 7.15747 7.76609 7.31157 7.76609H8.69097C8.84507 7.76609 8.99287 7.8273 9.10183 7.93627C9.2108 8.04524 9.27202 8.19304 9.27202 8.34714C9.27202 8.50125 9.2108 8.64904 9.10183 8.75801C8.99287 8.86698 8.84507 8.9282 8.69097 8.9282H7.31157ZM1.7769 10.1489H29.2549C29.374 9.59179 29.3569 9.01419 29.2052 8.46508C29.0535 7.91596 28.7716 7.41155 28.3834 6.9946C27.5679 6.0571 26.2496 5.28562 24.4771 4.85105C24.3611 4.8228 24.2568 4.75925 24.1785 4.66916C24.1002 4.57906 24.0519 4.46689 24.0401 4.34812C23.9857 3.85918 23.779 3.3997 23.4493 3.03464C22.9717 2.52097 22.3708 2.13777 21.7037 1.92136C20.9513 1.65864 20.1503 1.56445 19.3575 1.64548C18.3368 1.74349 17.3718 2.15643 16.5962 2.82712C16.4885 2.92857 16.3463 2.98529 16.1983 2.98581C15.9396 2.93068 15.692 2.83247 15.4659 2.69529L14.9336 2.42429L14.9043 2.40964C13.6291 1.93739 12.2443 1.84496 10.9175 2.14353C9.62734 2.41003 8.44931 3.06421 7.54106 4.01853C7.44572 4.12165 7.31675 4.18743 7.1773 4.20408C6.5583 4.26638 5.98013 4.54165 5.54155 4.98288C5.16762 5.38287 4.96367 5.91246 4.9727 6.45993C4.98076 6.58922 4.9452 6.71747 4.87173 6.82414C4.79825 6.93082 4.6911 7.00976 4.56743 7.04831C3.55669 7.3657 2.8438 7.75144 2.39946 8.29343C1.99841 8.83105 1.78022 9.48306 1.7769 10.1538V10.1489ZM26.4595 12.9443C26.4748 12.8879 26.5021 12.8355 26.5396 12.7907C26.577 12.7459 26.6237 12.7096 26.6765 12.6845C26.7292 12.6594 26.7868 12.646 26.8452 12.6452C26.9036 12.6445 26.9615 12.6563 27.0149 12.68C27.0683 12.7037 27.116 12.7386 27.1546 12.7824C27.1932 12.8262 27.2219 12.8779 27.2388 12.9338C27.2556 12.9898 27.2601 13.0487 27.252 13.1065C27.2439 13.1644 27.2234 13.2198 27.1919 13.269C26.7728 14.2321 26.2566 15.1499 25.6514 16.0083C25.6206 16.0519 25.5816 16.089 25.5365 16.1175C25.4913 16.146 25.441 16.1653 25.3884 16.1744C25.3358 16.1835 25.282 16.1821 25.2299 16.1703C25.1779 16.1586 25.1286 16.1367 25.085 16.1059C25.0414 16.0752 25.0043 16.0361 24.9758 15.991C24.9473 15.9458 24.9279 15.8955 24.9189 15.843C24.9098 15.7904 24.9112 15.7365 24.9229 15.6844C24.9347 15.6324 24.9566 15.5831 24.9874 15.5395C25.2723 15.135 25.5363 14.7162 25.7784 14.2846C26.0242 13.8496 26.2474 13.4023 26.4473 12.9443H26.4595ZM24.1426 16.6308C24.2135 16.5499 24.3137 16.5004 24.421 16.4933C24.5284 16.4862 24.6342 16.5221 24.7151 16.593C24.7961 16.6639 24.8455 16.764 24.8526 16.8714C24.8597 16.9788 24.8239 17.0846 24.753 17.1655C24.5088 17.4438 24.2647 17.7099 23.9986 17.9565C23.7325 18.2031 23.481 18.4399 23.2051 18.6572C23.1644 18.6985 23.1154 18.7305 23.0612 18.7512C23.0071 18.7719 22.9492 18.7807 22.8913 18.7771C22.8335 18.7735 22.7771 18.7576 22.726 18.7303C22.6748 18.7031 22.6301 18.6651 22.5949 18.6191C22.5596 18.5731 22.5346 18.5201 22.5216 18.4637C22.5086 18.4072 22.5079 18.3486 22.5194 18.2918C22.531 18.235 22.5546 18.1814 22.5886 18.1345C22.6227 18.0876 22.6664 18.0485 22.7168 18.02C22.961 17.8247 23.2051 17.6123 23.4493 17.3803C23.6934 17.1484 23.9375 16.8921 24.1548 16.6479L24.1426 16.6308ZM4.16216 17.9199C5.47563 19.6289 7.33599 20.7763 9.97759 21.604H20.1998C23.1563 20.7202 25.2632 19.2773 26.6963 17.5586C28.1689 15.7615 29.0588 13.5583 29.2476 11.2426H1.67436C2.14556 14.1284 2.9146 16.2939 4.16216 17.9199Z" fill="black" fill-opacity="0.6"/>
</g>
<defs>
<clipPath id="clip0_1_2696">
<rect width="30" height="24.0869" fill="white" transform="translate(0.5 0.456543)"/>
</clipPath>
</defs>
</svg>
