<svg width="30" height="31" viewBox="0 0 30 31" fill="none" xmlns="http://www.w3.org/2000/svg">
<g clip-path="url(#clip0_1_2644)">
<path d="M0.769607 26.8584C0.256536 26.3453 0 25.671 0 24.9991C0 24.3272 0.256536 23.6529 0.769607 23.1398C1.28268 22.6268 1.957 22.3702 2.62888 22.3702C3.30076 22.3702 3.97508 22.6268 4.48815 23.1398C4.5077 23.1594 4.53213 23.1838 4.55412 23.2083L8.39482 19.326C8.36306 19.2918 8.32885 19.2576 8.29709 19.2185C8.23357 19.1428 8.17005 19.0597 8.10652 18.9669L8.10164 18.9595C7.74004 18.4196 7.69118 17.8919 7.79868 17.3812C7.9013 16.8804 8.1505 16.404 8.39482 15.9398L8.39971 15.9324C8.44857 15.8396 8.49743 15.7467 8.55118 15.6368C8.60005 15.5366 8.65136 15.4389 8.70266 15.3436C8.75886 15.241 8.81016 15.1457 8.85903 15.0602C8.91033 14.9722 8.96409 14.877 9.02761 14.7768C9.08869 14.6791 9.14732 14.5838 9.2084 14.4934C9.3159 14.3321 9.46005 14.1196 9.59932 13.9143L9.60176 13.9095C10.2663 12.9273 10.838 12.0819 11.3071 10.8384C11.3731 10.6673 11.4342 10.4963 11.4928 10.3253C11.5539 10.1543 11.6101 9.98324 11.6663 9.81222C11.7249 9.63142 11.7786 9.4604 11.83 9.29182C11.8764 9.13789 11.9252 8.96931 11.9765 8.78852C12.3357 7.53272 12.6704 6.37953 13.076 5.35338C13.4816 4.31991 13.9555 3.41837 14.5883 2.6732C15.2407 1.90359 16.0445 1.31478 17.0853 0.943417C18.1212 0.574494 19.3892 0.41813 20.9822 0.513414C21.1703 0.52563 21.3535 0.540289 21.5343 0.559835C21.7151 0.579381 21.8959 0.606256 22.0718 0.635574C22.2477 0.664892 22.4212 0.699097 22.5898 0.738188C22.7584 0.777279 22.9221 0.818814 23.0784 0.865234C23.4425 0.972735 23.8041 1.10711 24.1559 1.26103C24.5077 1.4174 24.8546 1.59575 25.1942 1.79854C25.529 1.99888 25.8612 2.22121 26.1911 2.47041C26.5184 2.71962 26.8385 2.98837 27.1512 3.284C27.1683 3.3011 27.1854 3.3182 27.2025 3.33286L27.2123 3.34263C27.5031 3.65292 27.7694 3.97054 28.0161 4.29548C28.2653 4.62287 28.4901 4.95759 28.6904 5.29475C28.8932 5.6368 29.074 5.98617 29.2304 6.33799C29.3868 6.69226 29.5187 7.04896 29.6262 7.413C29.6702 7.56448 29.7141 7.72573 29.7532 7.89675C29.7923 8.06533 29.8265 8.24124 29.8559 8.4196C29.8852 8.59551 29.9096 8.77386 29.9291 8.95466C29.9487 9.13545 29.9658 9.32113 29.9756 9.50926C30.0709 11.0998 29.9145 12.3702 29.5456 13.4037C29.1742 14.4445 28.5854 15.2483 27.8158 15.9007C27.0706 16.5334 26.1666 17.0074 25.1356 17.413C24.1095 17.8161 22.9563 18.1533 21.7005 18.5124C21.5343 18.5613 21.3633 18.6102 21.1898 18.6615L21.1801 18.6639C21.0164 18.7128 20.8502 18.7665 20.6792 18.8203C20.518 18.8716 20.3518 18.9278 20.1808 18.9889C20.0122 19.0475 19.8363 19.111 19.6531 19.1794C19.0301 19.414 18.5097 19.673 18.021 19.9564C17.5348 20.2398 17.0755 20.5501 16.582 20.8823L16.5453 20.9068C16.3254 21.0558 16.1055 21.2048 16.0005 21.2757C15.9125 21.3343 15.8197 21.393 15.7244 21.4516C15.6267 21.5127 15.529 21.5689 15.4337 21.6251C15.3433 21.6764 15.2431 21.7326 15.1405 21.7863C15.0452 21.8376 14.9524 21.8865 14.8595 21.9329C14.8131 21.9549 14.7593 21.9842 14.6983 22.016L14.5566 22.0893C14.0924 22.3312 13.6159 22.5804 13.1151 22.6854C12.602 22.7905 12.0718 22.7441 11.5294 22.3776C11.439 22.3165 11.356 22.2505 11.2802 22.1772C11.2387 22.1381 11.1996 22.0966 11.1605 22.0551L7.28561 25.93C7.32226 25.9617 7.35158 25.9911 7.37845 26.0179C7.89152 26.531 8.14806 27.2053 8.14806 27.8772C8.14806 28.5491 7.89152 29.2234 7.37845 29.7365C6.86538 30.2495 6.19106 30.5061 5.51918 30.5061C4.8473 30.5061 4.17298 30.2495 3.65991 29.7365C3.35451 29.4311 3.13951 29.0695 3.0149 28.6835C2.90252 28.3365 2.86587 27.97 2.90252 27.6109C2.54337 27.6475 2.17689 27.6109 1.82995 27.4985C1.43904 27.3788 1.07501 27.1638 0.769607 26.8584ZM9.43318 16.4895C9.26216 16.8169 9.08624 17.1565 9.00073 17.4741C8.92011 17.7746 8.92011 18.0604 9.08624 18.3097C9.19375 18.4709 9.30613 18.5637 9.42585 18.6224C9.55045 18.6859 9.69216 18.7177 9.84852 18.7519C9.85341 18.7519 9.87295 18.7568 9.87784 18.7592C10.0269 18.7934 10.1784 18.8398 10.3347 18.9107C10.4935 18.984 10.6548 19.0841 10.816 19.2258C10.9651 19.3553 11.1092 19.5215 11.246 19.7316C11.3804 19.9368 11.5099 20.1885 11.6296 20.4988C11.6711 20.6087 11.7151 20.7186 11.7615 20.8213C11.8055 20.919 11.8495 21.0094 11.8984 21.0925C11.9375 21.1584 11.9814 21.2195 12.0279 21.2732C12.0718 21.3246 12.1231 21.3685 12.1769 21.4052C12.4237 21.5713 12.7119 21.5713 13.0125 21.4907C13.335 21.4052 13.6746 21.2268 14.0044 21.0534L14.1754 20.963C14.2194 20.941 14.2683 20.9141 14.3245 20.8872C14.4149 20.8408 14.5053 20.7968 14.5908 20.7504C14.6714 20.7089 14.7545 20.6624 14.8424 20.6111C14.9279 20.5623 15.011 20.5134 15.0892 20.4646C15.1698 20.4157 15.2529 20.3619 15.3433 20.3009C15.5143 20.1885 15.6193 20.1176 15.6951 20.0663L15.9199 19.9148C15.9199 19.9148 15.9223 19.9124 15.9247 19.9124C16.9704 19.2039 17.8695 18.5979 19.2353 18.0824C19.4063 18.0189 19.5822 17.9554 19.763 17.8919C19.9414 17.8308 20.1246 17.7673 20.3127 17.7062C20.5033 17.6451 20.6792 17.5889 20.8453 17.54L20.8551 17.5376C21.0432 17.4814 21.2167 17.4301 21.3731 17.3837C22.5702 17.0416 23.6697 16.7216 24.6274 16.3502C25.5803 15.9788 26.4012 15.5562 27.0486 15.0065C27.6741 14.4763 28.1505 13.8142 28.451 12.942C28.754 12.0624 28.8786 10.9654 28.7979 9.58011C28.7882 9.41642 28.7735 9.25272 28.7564 9.09147C28.7393 8.93022 28.7173 8.77141 28.6904 8.61505C28.666 8.46602 28.6367 8.31942 28.6025 8.17283C28.5707 8.02868 28.5316 7.88698 28.4901 7.75016C28.3948 7.43254 28.28 7.11737 28.1432 6.80953C28.0064 6.50169 27.85 6.19873 27.6741 5.90066C27.5006 5.60992 27.3076 5.32407 27.095 5.04066C26.8849 4.75969 26.6528 4.48361 26.4036 4.21241C26.3792 4.19531 26.3572 4.17576 26.3352 4.15378C26.3132 4.13179 26.2937 4.1098 26.2766 4.08537C26.0054 3.83616 25.7317 3.6065 25.4532 3.39638C25.1722 3.18383 24.8839 2.99081 24.5908 2.81735C24.2903 2.63899 23.9849 2.48019 23.677 2.34581C23.3692 2.20899 23.054 2.09416 22.7388 1.99888C22.602 1.9549 22.4627 1.91825 22.321 1.88649C22.1769 1.85473 22.0279 1.82541 21.8715 1.79854C21.7176 1.77166 21.5588 1.74967 21.3975 1.73257C21.2363 1.71547 21.0726 1.70081 20.9064 1.69103C19.5211 1.60797 18.4266 1.73257 17.547 2.03797C16.6748 2.33848 16.0127 2.8149 15.4825 3.44036C14.9328 4.09025 14.5077 4.90872 14.1388 5.86401C13.7674 6.82175 13.4473 7.92118 13.1053 9.11835C13.054 9.30159 13.0002 9.48239 12.9489 9.65585C12.9001 9.82199 12.8439 9.99546 12.7852 10.1811C12.7266 10.3595 12.668 10.5378 12.6044 10.7162C12.5409 10.897 12.475 11.0778 12.4065 11.2586C11.891 12.6292 11.2827 13.5259 10.5766 14.5716L10.5717 14.5789C10.4593 14.745 10.3445 14.9136 10.1881 15.1482C10.1368 15.2239 10.0855 15.307 10.0318 15.3949C9.98045 15.4804 9.92915 15.5659 9.88028 15.649C9.82653 15.7443 9.77767 15.8323 9.73613 15.9104C9.68971 15.9984 9.64574 16.0815 9.6042 16.167C9.55778 16.2598 9.49915 16.3698 9.44295 16.4797L9.43318 16.4895Z" fill="black" fill-opacity="0.6"/>
</g>
<defs>
<clipPath id="clip0_1_2644">
<rect width="30" height="30.022" fill="white" transform="translate(0 0.489014)"/>
</clipPath>
</defs>
</svg>
