<svg width="30" height="29" viewBox="0 0 30 29" fill="none" xmlns="http://www.w3.org/2000/svg">
<g clip-path="url(#clip0_1_2670)">
<path fill-rule="evenodd" clip-rule="evenodd" d="M12.4145 12.8044C9.75097 12.4674 7.82958 11.674 7.2705 10.0065C9.14542 9.85345 10.9922 9.45537 12.7637 8.82243C15.3174 7.84586 18.0981 7.03776 20.9497 7.47721C20.9078 8.53443 20.7179 9.58057 20.3857 10.5851C20.1129 11.5084 19.718 12.391 19.2114 13.2096C17.0142 12.8239 14.5947 13.0802 12.4145 12.8044ZM21.1841 15.4484L21.206 15.0431C20.971 14.9072 20.7262 14.7888 20.4736 14.6891C20.376 14.6525 20.2783 14.6159 20.1831 14.5841C18.623 15.1798 17.9321 17.0402 17.8882 18.7345C18.457 17.6896 19.2285 15.485 20.5078 15.4508L21.1841 15.4484ZM16.5845 13.6418L17.6636 13.8053L16.4258 15.6169C15.8227 16.5006 14.8633 16.3127 13.9697 16.0685L8.74267 14.6281C7.81249 15.6901 7.32421 16.9645 6.83593 18.3976C6.8126 16.9898 7.21511 15.6079 7.99071 14.4328C8.07646 14.2707 8.21024 14.1391 8.37372 14.0561C8.53719 13.973 8.72234 13.9426 8.9038 13.9689L15.2075 15.4338L16.5845 13.6418ZM23.9966 21.0905C22.6343 21.652 21.9531 23.1925 21.7993 24.7135C21.9165 24.6305 22.0434 24.5451 22.1411 24.4694C22.5635 23.5929 23.0908 22.5163 23.8037 22.111C23.8775 21.8609 23.9314 21.6054 23.9648 21.3468C23.9648 21.2663 23.9868 21.1833 23.9941 21.1027L23.9966 21.0905ZM23.8037 19.6256L23.8403 18.9982C23.8086 18.8566 23.772 18.7126 23.7305 18.5734C21.5161 18.6857 20.5566 20.9147 20.5102 22.9142C21.0767 21.8693 21.8506 19.6647 23.125 19.6305L23.8037 19.6256ZM22.8052 17.2892L22.8418 16.6325L22.7759 16.5348C22.7225 16.4597 22.6798 16.3775 22.6489 16.2907C22.6271 16.2783 22.6066 16.2635 22.5879 16.2467C20.4761 16.4469 19.5605 18.6222 19.5117 20.5778C20.0781 19.5329 20.8496 17.3283 22.124 17.2892H22.8052ZM6.62109 11.1857C6.25732 11.1003 5.90575 11.0099 5.56396 10.9098C4.85969 10.7118 4.17098 10.4621 3.50341 10.1628C2.32177 9.62077 1.25243 8.90788 0.620109 8.14616C0.279271 7.77652 0.062461 7.30961 -7.66758e-06 6.81071C-0.0132201 6.55693 0.0303279 6.3034 0.127466 6.06858C0.224603 5.83376 0.372886 5.62356 0.561516 5.45328C0.610344 5.40446 0.659172 5.35807 0.715324 5.31168C0.528273 4.93514 0.4179 4.52519 0.390617 4.10563C0.363657 3.60536 0.447004 3.10527 0.634758 2.64078C1.00999 1.82307 1.68328 1.17947 2.51708 0.841468C3.42966 0.453612 4.40677 0.239974 5.39794 0.211585C6.98311 0.129429 8.56798 0.378884 10.0513 0.944007C11.2827 1.4828 12.4862 2.08333 13.6572 2.74332C13.6987 2.76285 13.7402 2.78483 13.7768 2.8068C15.5664 3.78336 17.0483 4.58414 18.1714 4.48405C18.2361 4.47854 18.3004 4.49899 18.3501 4.54088C18.3998 4.58277 18.4308 4.64268 18.4363 4.70743C18.4418 4.77218 18.4213 4.83647 18.3794 4.88615C18.3375 4.93582 18.2776 4.96682 18.2129 4.97233H18.0737L18.2837 4.98453C18.8232 5.01383 19.3555 5.02848 19.8755 5.02604C20.3955 5.0236 20.9058 5.00407 21.4184 4.965C21.4505 4.96244 21.4828 4.96621 21.5134 4.97611C21.544 4.98601 21.5723 5.00184 21.5968 5.0227C21.6213 5.04356 21.6414 5.06903 21.6561 5.09767C21.6707 5.12631 21.6796 5.15755 21.6821 5.18961C21.6847 5.22167 21.6809 5.25393 21.671 5.28453C21.6611 5.31513 21.6453 5.34348 21.6244 5.36797C21.6036 5.39245 21.5781 5.41259 21.5495 5.42723C21.5208 5.44186 21.4896 5.45072 21.4575 5.45328C20.9448 5.49235 20.4175 5.51269 19.8755 5.51432C19.3408 5.51432 18.7988 5.50211 18.2568 5.47282C16.6382 5.38492 15.0293 5.16764 13.4204 4.94791C12.1313 4.77457 10.8398 4.59879 9.5288 4.49137C8.21777 4.38395 6.98486 4.34977 5.89355 4.34977C4.93965 4.33936 3.9887 4.45761 3.0664 4.70133C2.46518 4.86403 1.88986 5.11059 1.35741 5.43375C1.63317 5.86698 1.96115 6.26466 2.33398 6.61784C3.01705 7.25806 3.76583 7.82436 4.56786 8.30729C5.12939 8.65885 5.73974 9.00309 6.38915 9.34C6.28964 9.47596 6.22281 9.63302 6.19384 9.79899C5.51513 9.47672 4.8828 9.11051 4.29931 8.7443C3.46808 8.24132 2.69158 7.65301 1.98241 6.98893C1.5942 6.61931 1.2516 6.20458 0.961906 5.75358L0.913078 5.79996C0.77531 5.92125 0.666667 6.07204 0.595232 6.24112C0.523797 6.41019 0.49141 6.5932 0.500481 6.77653C0.555133 7.17376 0.730726 7.54455 1.00341 7.83854C1.58691 8.54411 2.59277 9.21061 3.71093 9.72086C4.35531 10.0135 5.02035 10.2583 5.70068 10.4533C5.9025 10.5119 6.11002 10.568 6.32323 10.6217C6.40724 10.8174 6.50685 11.006 6.62109 11.1857ZM1.12304 5.01139C1.68703 4.67083 2.29485 4.40882 2.92968 4.23258C3.89464 3.97539 4.89008 3.85055 5.88866 3.86149C7.01171 3.84684 8.25195 3.92008 9.57763 4.02994C10.9033 4.13981 12.1875 4.31315 13.4839 4.49137C14.7803 4.66959 16.1206 4.84782 17.439 4.95524C16.3257 4.77213 15.0317 4.06901 13.5327 3.24625L13.4277 3.18766C12.2696 2.5381 11.0791 1.94813 9.86083 1.42008C8.44485 0.87862 6.93153 0.638318 5.41747 0.714515C4.48968 0.735076 3.5739 0.928831 2.71728 1.2858C1.99829 1.57132 1.41629 2.12186 1.0913 2.82389C0.93097 3.22016 0.860915 3.64716 0.886223 4.07389C0.907922 4.39896 0.990751 4.71702 1.13036 5.01139H1.12304ZM13.7964 9.40592C13.9814 9.40544 14.1624 9.45987 14.3165 9.56232C14.4706 9.66477 14.5909 9.81064 14.662 9.98145C14.7331 10.1523 14.752 10.3404 14.7162 10.5219C14.6804 10.7034 14.5915 10.8703 14.4609 11.0013C14.3302 11.1323 14.1636 11.2216 13.9821 11.2579C13.8007 11.2942 13.6126 11.2758 13.4416 11.2051C13.2706 11.1344 13.1244 11.0145 13.0215 10.8607C12.9187 10.7069 12.8638 10.526 12.8638 10.341C12.8638 10.0934 12.9619 9.85594 13.1368 9.68066C13.3116 9.50537 13.5488 9.40657 13.7964 9.40592ZM21.6089 7.60905C23.0433 7.93657 24.3948 8.55659 25.5786 9.43034C26.0847 9.793 26.5563 10.2016 26.9873 10.651C26.5821 11.5794 26.0577 12.451 25.4272 13.2438C24.8228 14.0614 24.0995 14.7839 23.2812 15.3874C22.8619 14.8835 22.361 14.4535 21.7993 14.1154C21.2062 13.7713 20.5664 13.5147 19.8999 13.3537C20.3712 12.5425 20.7457 11.6789 21.0156 10.7804C21.3519 9.75324 21.5506 8.686 21.6064 7.60661L21.6089 7.60905ZM27.4683 11.2101C28.7893 12.8178 29.6349 14.7627 29.9097 16.8254C29.2873 17.4155 28.6058 17.9399 27.876 18.3903C27.0111 18.9598 26.0643 19.3936 25.0684 19.6769C24.9182 18.3289 24.4422 17.0377 23.6816 15.9147C24.5435 15.2735 25.3075 14.5103 25.9497 13.6491C26.5457 12.8947 27.0551 12.0758 27.4683 11.2077V11.2101ZM29.9878 17.653C30.1536 19.9855 29.398 22.29 27.8833 24.0714C27.7295 24.0397 27.5757 24.0055 27.4243 23.9689C26.4659 23.7564 25.5416 23.4121 24.6777 22.946C24.7314 22.8166 24.7803 22.6823 24.8242 22.548C25.0456 21.8375 25.1446 21.0945 25.1172 20.3507C25.9961 20.1676 27.1435 19.6379 28.2251 18.9591C28.8454 18.5725 29.4347 18.1383 29.9878 17.6603V17.653ZM27.3657 24.6134C26.0962 25.896 24.3872 26.9539 22.2388 27.7873C21.2158 28.549 20.0415 28.8761 19.1211 28.7809C16.8018 28.5368 16.7993 25.4582 19.0137 25.3947C19.6851 25.3752 20.5957 25.568 21.7969 26.0221C22.8694 25.4402 23.7645 24.5788 24.3872 23.5295C25.2955 24.0147 26.2654 24.3744 27.2705 24.5988L27.3657 24.6232V24.6134Z" fill="black" fill-opacity="0.6"/>
</g>
<defs>
<clipPath id="clip0_1_2670">
<rect width="30" height="28.6011" fill="white" transform="translate(0 0.199463)"/>
</clipPath>
</defs>
</svg>
