<svg width="26" height="37" viewBox="0 0 26 37" fill="none" xmlns="http://www.w3.org/2000/svg">
<g clip-path="url(#clip0_1_2663)">
<path d="M15.7148 9.27203C15.5801 9.29839 15.4395 9.30131 15.2989 9.27203H5.82203C5.79567 9.27203 5.4501 9.2691 5.13967 9.26617C3.77495 9.25153 3.58166 9.2486 2.86709 10.4259L1.71615 12.3236C1.66929 12.4027 1.62537 12.4642 1.57851 12.5374C1.51701 12.6282 1.44379 12.7395 1.37936 12.839H24.5738L24.5357 12.7834C24.5298 12.7775 24.5269 12.7688 24.5211 12.76C24.5035 12.7336 24.4859 12.7073 24.4713 12.6868L22.7668 10.054C22.1987 9.25446 21.446 9.26031 20.134 9.2691C19.8002 9.27203 19.8588 9.27496 19.6479 9.27496H15.7148V9.27203ZM14.5024 8.03616L14.5053 8.02738L15.419 4.17336C15.4922 3.86586 15.6943 3.62278 15.9579 3.491L21.0419 0.638552C21.5368 0.360337 22.1635 0.536052 22.4418 1.03391C22.72 1.52884 22.5443 2.15556 22.0464 2.43378L17.3167 5.08708L16.6168 8.03616H19.645C20.1955 8.03616 20.1018 8.03616 20.1282 8.03616C21.8473 8.02445 22.8342 8.01859 23.7684 9.33939C23.7801 9.35403 23.7889 9.36867 23.7977 9.38332L25.5021 12.0161C25.5168 12.0366 25.5285 12.0571 25.5431 12.0776C25.549 12.0864 25.5549 12.0952 25.5607 12.104C25.7452 12.3793 25.9971 12.76 25.9971 13.1583C25.9971 13.6913 25.7189 14.0778 24.8725 14.0778H23.8768L21.5866 31.6025C21.5603 31.8075 21.5398 32.0272 21.5163 32.2497C21.3992 33.4358 21.2733 34.7361 20.3244 35.6C19.2789 36.5489 17.7326 36.5137 16.4059 36.4815C16.239 36.4786 16.075 36.4727 15.7851 36.4727H8.09462V36.4698C6.92904 36.502 6.02703 36.2033 5.3886 35.5825L5.35931 35.5532C5.35053 35.5444 5.33882 35.5327 5.33003 35.5239C5.32124 35.5151 5.30953 35.5034 5.30074 35.4946L5.27146 35.4653L5.2451 35.436L5.21874 35.4038C5.20996 35.3921 5.20117 35.3833 5.19239 35.3716L5.16603 35.3394L5.13967 35.3072L5.11331 35.275L5.08696 35.2427L5.06353 35.2105L5.0401 35.1754L5.01667 35.1402L4.99324 35.1051L4.96981 35.07L4.94638 35.0348L4.92296 34.9997L4.90246 34.9645L4.88196 34.9265L4.86146 34.8884L4.84096 34.8503L4.82045 34.8122L4.79995 34.7742L4.77945 34.7361L4.76188 34.698L4.74431 34.657L4.72674 34.616L4.70917 34.575L4.6916 34.534L4.67403 34.493L4.65645 34.452L4.64181 34.411L4.62717 34.3671L4.61253 34.3232L4.59788 34.2792L4.58324 34.2353L4.5686 34.1914L4.55395 34.1475L4.54224 34.1035L4.53052 34.0567L4.51881 34.0098L4.5071 33.9629L4.49538 33.9161L4.48367 33.8692L4.47195 33.8224L4.46317 33.7755L4.45438 33.7287L4.4456 33.6789L4.43681 33.6291L4.42802 33.5793L4.41924 33.5295L4.41045 33.4797L4.4046 33.4299L4.39874 33.3802L4.39288 33.3274L4.38702 33.2747L4.38117 33.222L4.37531 33.1693L4.36945 33.1166L4.3636 33.0639L4.36067 33.0112L4.35774 32.9555L4.35481 32.8999L4.01802 30.3784C4.01217 30.3461 4.00631 30.311 4.00338 30.2759L1.88601 14.0749H1.11579C0.287002 14.0749 0 13.6854 0 13.129C0 12.6692 0.325073 12.186 0.553503 11.8492C0.603289 11.776 0.647218 11.7086 0.661861 11.6852L1.8128 9.78746C2.89052 8.00981 3.17166 8.01274 5.14846 8.03324C5.2451 8.03324 5.35053 8.03616 5.82203 8.03616H14.5024ZM22.6351 14.0837H3.13066L5.1631 29.6286H20.6055L22.6351 14.0837ZM5.32417 30.8645L5.5731 32.7681C5.57603 32.7857 5.57603 32.8003 5.57896 32.8179C5.62289 33.6789 5.84546 34.3115 6.24961 34.701C6.64497 35.0846 7.25118 35.2662 8.07704 35.2398H8.09754V35.2369H15.7851C15.8993 35.2369 16.1629 35.2427 16.4352 35.2486C17.5335 35.275 18.8132 35.3042 19.4956 34.6863C20.096 34.1416 20.1985 33.0902 20.2922 32.1326C20.3156 31.8954 20.339 31.664 20.3683 31.4414L20.4445 30.8645H5.32417Z" fill="black" fill-opacity="0.6"/>
</g>
<defs>
<clipPath id="clip0_1_2663">
<rect width="26" height="35.9865" fill="white" transform="translate(0 0.506836)"/>
</clipPath>
</defs>
</svg>
