<svg width="31" height="17" viewBox="0 0 31 17" fill="none" xmlns="http://www.w3.org/2000/svg">
<g clip-path="url(#clip0_1216_36)">
<path fill-rule="evenodd" clip-rule="evenodd" d="M3.03661 7.81275L2.99266 7.83472C3.00243 7.85669 3.00975 7.87867 3.01464 7.90308C3.89843 11.802 5.75145 12.2048 8.92528 12.8909C9.35253 12.9836 9.80419 13.0813 10.2998 13.1985L18.9839 15.2346C20.3022 15.491 21.5766 15.5349 22.7485 15.3127C23.542 15.1614 24.2915 14.8904 24.9751 14.4827C22.7143 14.4949 21.0835 13.9456 18.8642 13.0203C15.2876 11.531 12.8071 9.53882 9.87743 8.27906C7.71434 7.34888 5.47313 6.92652 3.03661 7.81275ZM2.1455 8.16675C1.21044 8.45484 0.57323 8.3108 0.502429 7.35865C0.446277 6.31373 0.988269 5.30054 2.11376 4.32154C8.96678 -1.6477 20.4731 -0.0998484 25.8882 7.09009C27.5483 9.29712 28.6128 11.2478 30.5 13.5403C29.7505 13.9309 28.9912 14.197 28.2148 14.3093C28.0122 14.3386 27.2358 14.3875 26.4106 14.4314C26.3911 14.5339 26.3374 14.6316 26.2495 14.7C25.2632 15.4885 24.1352 15.9768 22.917 16.2063C21.6279 16.4504 20.2388 16.4065 18.8105 16.1282L10.0947 14.0798C9.63329 13.9724 9.17186 13.8723 8.73241 13.7771C5.22167 13.0178 3.16356 12.5686 2.1455 8.16675ZM10.998 3.38648C12.624 2.7688 14.2793 2.42945 15.5366 2.60035C14.6211 3.18628 13.6299 3.71363 12.4604 4.1775C12.4629 5.35669 12.3188 6.80445 12.0552 7.969C11.8354 6.43335 11.5205 4.66089 10.998 3.38648ZM20.688 7.94703C22.3628 7.47828 24.0425 7.29029 25.2803 7.57349C24.3159 8.07642 23.2808 8.50855 22.0747 8.865C21.9697 10.0393 21.6963 11.4675 21.3276 12.6052C21.2471 11.0574 21.0933 9.26539 20.688 7.94703ZM16.103 5.24927C17.7778 4.78052 19.4575 4.59253 20.6953 4.87574C19.7309 5.37867 18.6958 5.8108 17.4897 6.16724C17.3848 7.34156 17.1113 8.76978 16.7427 9.90748C16.6597 8.35963 16.5058 6.56763 16.103 5.24927Z" fill="black" fill-opacity="0.6"/>
</g>
<defs>
<clipPath id="clip0_1216_36">
<rect width="30" height="15.7251" fill="white" transform="translate(0.5 0.637451)"/>
</clipPath>
</defs>
</svg>
