<svg width="31" height="31" viewBox="0 0 31 31" fill="none" xmlns="http://www.w3.org/2000/svg">
<g clip-path="url(#clip0_1_2683)">
<path d="M8.88373 28.3832C6.2641 27.5654 4.40619 26.4106 3.05853 24.6747C1.71088 22.9389 0.949158 20.6684 0.499939 17.5654C0.490092 17.5113 0.490092 17.4559 0.499939 17.4018C0.499429 16.3946 0.855799 15.4197 1.5058 14.6503C1.99408 14.0522 2.68988 13.6249 3.62494 13.2929C3.68984 12.6517 3.96644 12.0504 4.41107 11.5839C4.93195 11.0512 5.60942 10.6987 6.34467 10.5781C7.30271 9.63053 8.51428 8.98023 9.83344 8.7055C11.2393 8.39361 12.7053 8.49536 14.0546 8.99847C14.1401 9.03265 14.4184 9.17181 14.6699 9.29876C14.7037 9.31397 14.733 9.33749 14.7553 9.36712C15.5786 8.72141 16.5683 8.32266 17.6093 8.21722C18.3036 8.14559 19.0051 8.19599 19.6821 8.36614L22.9853 1.75237C23.2856 1.16643 23.7665 0.60491 24.6943 1.05901C24.9435 1.17779 25.1561 1.36167 25.3095 1.59124C25.7343 2.24065 25.3779 2.69231 25.0654 3.25139L21.4814 9.19378C21.7508 9.38186 21.9967 9.60153 22.2138 9.84807L22.2407 9.87981C22.5859 10.271 22.8328 10.7388 22.9609 11.2446C23.2734 11.3324 23.5737 11.4325 23.8569 11.54L28.0073 4.61614C28.3539 4.05706 28.8764 3.53704 29.77 4.06194C30.0087 4.20131 30.2059 4.40191 30.3412 4.643C30.7099 5.32415 30.3217 5.74651 29.9555 6.2763L25.6171 12.4628C26.0203 12.7424 26.3876 13.0703 26.7109 13.4394C27.1727 13.9407 27.5068 14.5459 27.6849 15.2038C27.863 15.8617 27.8798 16.5529 27.7338 17.2187C27.7249 17.2582 27.7118 17.2967 27.6948 17.3334C27.7124 17.3862 27.7214 17.4414 27.7216 17.497C27.7228 17.519 27.7228 17.541 27.7216 17.5629C27.6197 20.056 26.7116 22.4488 25.1337 24.3818C23.6982 26.0908 21.601 27.5263 18.6616 28.4003H18.6469V29.8969C18.6469 29.9526 18.6248 30.006 18.5854 30.0454C18.546 30.0847 18.4926 30.1069 18.437 30.1069H9.17181C9.10036 30.1069 9.0318 30.0787 8.98105 30.0284C8.9303 29.9781 8.90146 29.9098 8.90082 29.8383V28.3906H8.88373V28.3832ZM20.5634 15.8808C20.4229 15.8808 20.2882 15.825 20.1888 15.7256C20.0894 15.6263 20.0336 15.4915 20.0336 15.351C20.0336 15.2105 20.0894 15.0757 20.1888 14.9764C20.2882 14.877 20.4229 14.8212 20.5634 14.8212H21.8183C21.9588 14.8212 22.0936 14.877 22.1929 14.9764C22.2923 15.0757 22.3481 15.2105 22.3481 15.351C22.3481 15.4915 22.2923 15.6263 22.1929 15.7256C22.0936 15.825 21.9588 15.8808 21.8183 15.8808H20.5634ZM20.246 12.2187C20.3094 12.2469 20.3665 12.2873 20.4142 12.3376C20.4619 12.3879 20.4992 12.4471 20.5241 12.5118C20.5489 12.5765 20.5607 12.6455 20.5589 12.7148C20.557 12.7841 20.5416 12.8524 20.5134 12.9157C20.4852 12.979 20.4447 13.0362 20.3944 13.0839C20.3441 13.1316 20.2849 13.1689 20.2202 13.1937C20.1555 13.2186 20.0865 13.2304 20.0172 13.2285C19.9479 13.2267 19.8797 13.2112 19.8163 13.183L18.6713 12.6679C18.608 12.6397 18.5509 12.5993 18.5032 12.549C18.4555 12.4987 18.4181 12.4395 18.3933 12.3748C18.3432 12.244 18.347 12.0988 18.404 11.9709C18.461 11.843 18.5664 11.743 18.6971 11.6929C18.8279 11.6427 18.9731 11.6466 19.101 11.7035L20.246 12.2187ZM13.8984 12.5336C13.8312 12.5099 13.7695 12.4728 13.7171 12.4245C13.6646 12.3763 13.6225 12.3179 13.5932 12.253C13.564 12.188 13.5482 12.1178 13.5468 12.0465C13.5455 11.9753 13.5585 11.9045 13.5853 11.8385C13.612 11.7724 13.6519 11.7125 13.7025 11.6623C13.753 11.612 13.8132 11.5726 13.8794 11.5463C13.9457 11.52 14.0165 11.5074 14.0878 11.5092C14.159 11.5111 14.2291 11.5274 14.2939 11.5571L15.5512 12.0698C15.6165 12.0951 15.6761 12.1331 15.7265 12.1817C15.7769 12.2303 15.8172 12.2884 15.8449 12.3527C15.8726 12.417 15.8872 12.4861 15.8879 12.5562C15.8886 12.6262 15.8754 12.6956 15.849 12.7605C15.8225 12.8253 15.7835 12.8842 15.734 12.9338C15.6846 12.9834 15.6258 13.0226 15.561 13.0492C15.4963 13.0758 15.4269 13.0893 15.3569 13.0888C15.2868 13.0883 15.2176 13.0738 15.1533 13.0463L13.8984 12.5336ZM13.4394 15.8808C13.2989 15.8808 13.1641 15.825 13.0648 15.7256C12.9654 15.6263 12.9096 15.4915 12.9096 15.351C12.9096 15.2105 12.9654 15.0757 13.0648 14.9764C13.1641 14.877 13.2989 14.8212 13.4394 14.8212H14.6943C14.8348 14.8212 14.9695 14.877 15.0689 14.9764C15.1682 15.0757 15.2241 15.2105 15.2241 15.351C15.2241 15.4915 15.1682 15.6263 15.0689 15.7256C14.9695 15.825 14.8348 15.8808 14.6943 15.8808H13.4394ZM9.16693 13.3442C9.03743 13.4011 8.8906 13.4044 8.75874 13.3531C8.62688 13.3018 8.52079 13.2002 8.46381 13.0707C8.40683 12.9412 8.40362 12.7944 8.4549 12.6625C8.50618 12.5307 8.60774 12.4246 8.73724 12.3676L9.88226 11.8525C9.94596 11.8203 10.0155 11.8015 10.0867 11.797C10.1579 11.7925 10.2293 11.8026 10.2965 11.8265C10.3637 11.8504 10.4254 11.8877 10.4777 11.9361C10.5301 11.9846 10.5721 12.0431 10.6012 12.1082C10.6303 12.1734 10.6459 12.2437 10.647 12.3151C10.6481 12.3864 10.6348 12.4572 10.6077 12.5232C10.5807 12.5892 10.5405 12.6491 10.4897 12.6991C10.4388 12.7492 10.3784 12.7884 10.312 12.8144L9.16693 13.3442ZM6.70599 15.8808C6.56549 15.8808 6.43073 15.825 6.33138 15.7256C6.23203 15.6263 6.17621 15.4915 6.17621 15.351C6.17621 15.2105 6.23203 15.0757 6.33138 14.9764C6.43073 14.877 6.56549 14.8212 6.70599 14.8212H7.96332C8.10383 14.8212 8.23858 14.877 8.33793 14.9764C8.43729 15.0757 8.4931 15.2105 8.4931 15.351C8.4931 15.4915 8.43729 15.6263 8.33793 15.7256C8.23858 15.825 8.10383 15.8808 7.96332 15.8808H6.70599ZM1.75726 17.0063H26.7011C26.8091 16.5009 26.7936 15.9769 26.6559 15.4788C26.5182 14.9807 26.2624 14.5231 25.9101 14.1449C25.1777 13.2929 23.9741 12.5971 22.3676 12.1918C22.2618 12.1658 22.1665 12.1078 22.0949 12.0256C22.0232 11.9435 21.9786 11.8412 21.9672 11.7328C21.9154 11.3009 21.7322 10.8952 21.4423 10.5707L21.4179 10.5463C20.9886 10.0802 20.4475 9.73147 19.8456 9.53313C19.1615 9.29728 18.434 9.21395 17.7143 9.28899C16.7881 9.37839 15.9126 9.75382 15.2094 10.3632C15.1114 10.4565 14.981 10.5082 14.8456 10.5073C14.6142 10.4571 14.3929 10.368 14.1913 10.2436C13.9692 10.1337 13.725 9.99944 13.6738 9.99944C12.5164 9.56747 11.2581 9.48263 10.0532 9.7553C8.88094 9.99967 7.81118 10.5959 6.98676 11.4643C6.90156 11.5593 6.7841 11.6194 6.65717 11.6327C6.09625 11.6905 5.57262 11.9407 5.17523 12.3407C4.84128 12.693 4.65365 13.1591 4.65033 13.6445C4.65861 13.7631 4.62675 13.881 4.55989 13.9793C4.49302 14.0776 4.39503 14.1506 4.28168 14.1865C3.36371 14.4721 2.71674 14.8237 2.3139 15.3168C1.95126 15.8053 1.75603 16.3979 1.75726 17.0063ZM24.1035 19.5209C24.1193 19.4723 24.145 19.4274 24.179 19.3892C24.213 19.351 24.2546 19.3202 24.3011 19.2988C24.3475 19.2774 24.3979 19.2658 24.4491 19.2648C24.5003 19.2638 24.5511 19.2734 24.5983 19.293C24.6456 19.3126 24.6883 19.3417 24.7238 19.3786C24.7593 19.4155 24.7867 19.4593 24.8044 19.5073C24.8222 19.5553 24.8298 19.6065 24.8268 19.6575C24.8238 19.7086 24.8103 19.7585 24.787 19.8041C24.6075 20.2471 24.4054 20.6806 24.1816 21.103C23.9588 21.5223 23.7143 21.9298 23.4492 22.3237C23.4238 22.368 23.3895 22.4065 23.3485 22.437C23.3075 22.4674 23.2607 22.4891 23.2109 22.5006C23.1611 22.5121 23.1096 22.5133 23.0594 22.5039C23.0091 22.4946 22.9614 22.475 22.9191 22.4463C22.8768 22.4177 22.8409 22.3806 22.8136 22.3375C22.7863 22.2943 22.7682 22.246 22.7605 22.1955C22.7527 22.1451 22.7554 22.0935 22.7685 22.0442C22.7815 21.9948 22.8047 21.9486 22.8364 21.9086C23.0898 21.5353 23.3237 21.149 23.537 20.7514C23.7519 20.3545 23.9466 19.9471 24.1205 19.5307L24.1035 19.5209ZM22.06 22.9218C22.1247 22.847 22.2166 22.801 22.3152 22.7939C22.3641 22.7904 22.4131 22.7966 22.4596 22.812C22.5061 22.8274 22.5491 22.8519 22.5861 22.884C22.6231 22.916 22.6535 22.9551 22.6754 22.9989C22.6974 23.0426 22.7105 23.0903 22.714 23.1392C22.7175 23.188 22.7114 23.2371 22.6959 23.2836C22.6805 23.3301 22.656 23.3731 22.624 23.4101C22.4067 23.6689 22.1796 23.9155 21.9501 24.1425C21.7206 24.3696 21.496 24.5746 21.2519 24.7748C21.2144 24.8069 21.1709 24.8313 21.124 24.8465C21.0771 24.8618 21.0276 24.8677 20.9784 24.8638C20.9292 24.86 20.8813 24.8464 20.8373 24.8241C20.7933 24.8017 20.7542 24.7708 20.7221 24.7333C20.69 24.6958 20.6657 24.6524 20.6504 24.6054C20.6352 24.5585 20.6293 24.509 20.6331 24.4598C20.637 24.4106 20.6505 24.3627 20.6729 24.3187C20.6953 24.2747 20.7261 24.2356 20.7636 24.2035C20.9858 24.0204 21.2055 23.8202 21.4203 23.6078C21.6352 23.3954 21.85 23.1586 22.0502 22.9218H22.06ZM3.83978 24.0717C5.03607 25.6293 6.74017 26.6742 9.14008 27.4286H18.4492C21.1347 26.6157 23.0634 25.3095 24.3696 23.7446C25.7126 22.1052 26.5234 20.0952 26.6938 17.9828H1.56928C1.99896 20.6244 2.69721 22.5922 3.83978 24.0717Z" fill="black" fill-opacity="0.6"/>
</g>
<defs>
<clipPath id="clip0_1_2683">
<rect width="30" height="29.2139" fill="white" transform="translate(0.5 0.893066)"/>
</clipPath>
</defs>
</svg>
