<svg width="31" height="25" viewBox="0 0 31 25" fill="none" xmlns="http://www.w3.org/2000/svg">
<g clip-path="url(#clip0_1216_30)">
<path d="M9.70165 22.6489C6.82567 21.7529 4.77489 20.476 3.31005 18.5815C1.8452 16.687 0.988269 14.1699 0.499987 10.7763C0.481087 10.6365 0.516951 10.4948 0.600085 10.3808C0.624499 9.18699 0.912585 8.28366 1.49608 7.56833C2.03319 6.90915 2.80223 6.4404 3.83251 6.07419C3.90293 5.36729 4.20706 4.70406 4.69677 4.18943C5.27058 3.60311 6.01628 3.21486 6.82567 3.08103C7.88095 2.03277 9.21741 1.31281 10.6733 1.00827C12.2182 0.665202 13.8294 0.777137 15.312 1.33054C15.3347 1.33964 15.3567 1.35024 15.3779 1.36228C15.5195 1.42575 15.7637 1.54782 15.9883 1.66013C16.0263 1.67743 16.0597 1.70334 16.0859 1.73581C16.999 1.03174 18.0924 0.600101 19.2402 0.490696C20.2022 0.39204 21.174 0.50623 22.0869 0.825169C22.9389 1.10927 23.7043 1.60586 24.311 2.26804C24.7073 2.70944 24.9883 3.24202 25.1289 3.81833C26.9599 4.33103 28.354 5.18796 29.2598 6.23288C29.7673 6.78324 30.1348 7.44775 30.3311 8.17019C30.5274 8.89263 30.5468 9.65174 30.3877 10.3833C30.3782 10.4272 30.3635 10.4698 30.3437 10.5102C30.3656 10.5679 30.3764 10.6292 30.3755 10.6909C30.3767 10.7145 30.3767 10.7381 30.3755 10.7617C30.2241 13.3838 29.3843 16.0302 27.5337 18.2446C25.9541 20.1416 23.6518 21.6968 20.4267 22.6733H20.4121V24.3139C20.4121 24.3787 20.3864 24.4408 20.3406 24.4866C20.2948 24.5324 20.2327 24.5581 20.168 24.5581H10.0215C9.9429 24.5574 9.86777 24.5258 9.81244 24.47C9.7571 24.4142 9.72606 24.3388 9.72606 24.2602V22.6562H9.70653L9.70165 22.6489ZM22.519 8.9282C22.3649 8.9282 22.2171 8.86698 22.1082 8.75801C21.9992 8.64904 21.938 8.50125 21.938 8.34714C21.938 8.19304 21.9992 8.04524 22.1082 7.93627C22.2171 7.8273 22.3649 7.76609 22.519 7.76609H23.896C24.0501 7.76609 24.1979 7.8273 24.3069 7.93627C24.4158 8.04524 24.477 8.19304 24.477 8.34714C24.477 8.50125 24.4158 8.64904 24.3069 8.75801C24.1979 8.86698 24.0501 8.9282 23.896 8.9282H22.519ZM22.1723 4.9072C22.2418 4.9383 22.3044 4.98277 22.3566 5.03806C22.4088 5.09336 22.4496 5.1584 22.4767 5.22947C22.5038 5.30054 22.5167 5.37625 22.5145 5.45228C22.5123 5.52831 22.4952 5.60317 22.4641 5.67258C22.433 5.74199 22.3885 5.8046 22.3332 5.85683C22.2779 5.90905 22.2129 5.94988 22.1418 5.97697C22.0708 6.00406 21.995 6.01689 21.919 6.01472C21.843 6.01255 21.7681 5.99543 21.6987 5.96433L20.4414 5.39792C20.372 5.36682 20.3094 5.32236 20.2571 5.26706C20.2049 5.21177 20.1641 5.14673 20.137 5.07566C20.1099 5.00458 20.0971 4.92887 20.0993 4.85284C20.1014 4.77681 20.1185 4.70195 20.1496 4.63254C20.1807 4.56313 20.2252 4.50052 20.2805 4.4483C20.3358 4.39607 20.4008 4.35524 20.4719 4.32815C20.543 4.30106 20.6187 4.28823 20.6947 4.2904C20.7708 4.29257 20.8456 4.30969 20.915 4.34079L22.1723 4.9072ZM15.1948 5.25388C15.1241 5.22486 15.0598 5.18221 15.0056 5.12835C14.9514 5.07449 14.9083 5.01048 14.8789 4.93997C14.8494 4.86947 14.8341 4.79385 14.8339 4.71743C14.8336 4.64101 14.8484 4.5653 14.8774 4.4946C14.9064 4.42391 14.9491 4.35962 15.003 4.30541C15.0568 4.2512 15.1208 4.20813 15.1913 4.17866C15.2618 4.14919 15.3375 4.13389 15.4139 4.13364C15.4903 4.1334 15.566 4.1482 15.6367 4.17722L17.0161 4.74118C17.1602 4.79978 17.2751 4.91321 17.3355 5.05652C17.3959 5.19983 17.397 5.36128 17.3384 5.50534C17.2798 5.64941 17.1663 5.7643 17.023 5.82474C16.8797 5.88518 16.7183 5.88621 16.5742 5.82761L15.1948 5.26609V5.25388ZM14.7065 8.9282C14.5524 8.9282 14.4046 8.86698 14.2957 8.75801C14.1867 8.64904 14.1255 8.50125 14.1255 8.34714C14.1255 8.19304 14.1867 8.04524 14.2957 7.93627C14.4046 7.8273 14.5524 7.76609 14.7065 7.76609H16.0859C16.24 7.76609 16.3878 7.8273 16.4968 7.93627C16.6058 8.04524 16.667 8.19304 16.667 8.34714C16.667 8.50125 16.6058 8.64904 16.4968 8.75801C16.3878 8.86698 16.24 8.9282 16.0859 8.9282H14.7065ZM10.0215 6.13279C9.88129 6.19754 9.72112 6.20395 9.57621 6.15061C9.4313 6.09727 9.31352 5.98855 9.24877 5.84836C9.18402 5.70818 9.17761 5.54801 9.23095 5.4031C9.28429 5.25819 9.39301 5.14041 9.53319 5.07566L10.7905 4.50925C10.8599 4.47831 10.9348 4.46135 11.0107 4.45933C11.0867 4.45731 11.1623 4.47027 11.2333 4.49747C11.3042 4.52468 11.3691 4.56559 11.4243 4.61788C11.4794 4.67017 11.5237 4.73281 11.5547 4.80222C11.5856 4.87163 11.6026 4.94646 11.6046 5.02243C11.6066 5.09839 11.5937 5.17402 11.5665 5.24498C11.5392 5.31593 11.4983 5.38084 11.446 5.43599C11.3938 5.49113 11.3311 5.53544 11.2617 5.56638L10.0215 6.13279ZM7.31151 8.9282C7.15741 8.9282 7.00961 8.86698 6.90064 8.75801C6.79168 8.64904 6.73046 8.50125 6.73046 8.34714C6.73046 8.19304 6.79168 8.04524 6.90064 7.93627C7.00961 7.8273 7.15741 7.76609 7.31151 7.76609H8.69091C8.84501 7.76609 8.9928 7.8273 9.10177 7.93627C9.21074 8.04524 9.27196 8.19304 9.27196 8.34714C9.27196 8.50125 9.21074 8.64904 9.10177 8.75801C8.9928 8.86698 8.84501 8.9282 8.69091 8.9282H7.31151ZM1.77684 10.1489H29.2549C29.3739 9.59179 29.3569 9.01419 29.2051 8.46508C29.0534 7.91596 28.7715 7.41155 28.3833 6.9946C27.5679 6.0571 26.2495 5.28562 24.477 4.85105C24.3611 4.8228 24.2567 4.75925 24.1785 4.66916C24.1002 4.57906 24.0518 4.46689 24.04 4.34812C23.9857 3.85918 23.779 3.3997 23.4492 3.03464C22.9716 2.52097 22.3708 2.13777 21.7036 1.92136C20.9512 1.65864 20.1502 1.56445 19.3574 1.64548C18.3367 1.74349 17.3718 2.15643 16.5962 2.82712C16.4885 2.92857 16.3462 2.98529 16.1982 2.98581C15.9395 2.93068 15.692 2.83247 15.4658 2.69529L14.9336 2.42429L14.9043 2.40964C13.629 1.93739 12.2442 1.84496 10.9175 2.14353C9.62728 2.41003 8.44925 3.06421 7.541 4.01853C7.44565 4.12165 7.31669 4.18743 7.17723 4.20408C6.55824 4.26638 5.98007 4.54165 5.54149 4.98288C5.16756 5.38287 4.9636 5.91246 4.97264 6.45993C4.9807 6.58922 4.94514 6.71747 4.87166 6.82414C4.79818 6.93082 4.69103 7.00976 4.56737 7.04831C3.55663 7.3657 2.84374 7.75144 2.3994 8.29343C1.99835 8.83105 1.78016 9.48306 1.77684 10.1538V10.1489ZM26.4595 12.9443C26.4748 12.8879 26.5021 12.8355 26.5395 12.7907C26.577 12.7459 26.6237 12.7096 26.6764 12.6845C26.7292 12.6594 26.7867 12.646 26.8451 12.6452C26.9035 12.6445 26.9614 12.6563 27.0148 12.68C27.0682 12.7037 27.1159 12.7386 27.1545 12.7824C27.1932 12.8262 27.2219 12.8779 27.2387 12.9338C27.2555 12.9898 27.26 13.0487 27.252 13.1065C27.2439 13.1644 27.2234 13.2198 27.1919 13.269C26.7727 14.2321 26.2566 15.1499 25.6514 16.0083C25.6206 16.0519 25.5815 16.089 25.5364 16.1175C25.4913 16.146 25.441 16.1653 25.3884 16.1744C25.3358 16.1835 25.2819 16.1821 25.2299 16.1703C25.1778 16.1586 25.1286 16.1367 25.0849 16.1059C25.0413 16.0752 25.0042 16.0361 24.9757 15.991C24.9472 15.9458 24.9279 15.8955 24.9188 15.843C24.9097 15.7904 24.9111 15.7365 24.9229 15.6844C24.9346 15.6324 24.9565 15.5831 24.9873 15.5395C25.2722 15.135 25.5363 14.7162 25.7783 14.2846C26.0241 13.8496 26.2474 13.4023 26.4473 12.9443H26.4595ZM24.1426 16.6308C24.2135 16.5499 24.3136 16.5004 24.421 16.4933C24.5284 16.4862 24.6341 16.5221 24.7151 16.593C24.796 16.6639 24.8455 16.764 24.8526 16.8714C24.8597 16.9788 24.8238 17.0846 24.7529 17.1655C24.5088 17.4438 24.2646 17.7099 23.9985 17.9565C23.7324 18.2031 23.4809 18.4399 23.2051 18.6572C23.1644 18.6985 23.1153 18.7305 23.0612 18.7512C23.007 18.7719 22.9491 18.7807 22.8913 18.7771C22.8334 18.7735 22.777 18.7576 22.7259 18.7303C22.6748 18.7031 22.6301 18.6651 22.5948 18.6191C22.5596 18.5731 22.5346 18.5201 22.5216 18.4637C22.5086 18.4072 22.5078 18.3486 22.5194 18.2918C22.5309 18.235 22.5545 18.1814 22.5886 18.1345C22.6226 18.0876 22.6664 18.0485 22.7168 18.02C22.9609 17.8247 23.2051 17.6123 23.4492 17.3803C23.6933 17.1484 23.9375 16.8921 24.1548 16.6479L24.1426 16.6308ZM4.1621 17.9199C5.47557 19.6289 7.33593 20.7763 9.97753 21.604H20.1997C23.1562 20.7202 25.2632 19.2773 26.6963 17.5586C28.1688 15.7615 29.0588 13.5583 29.2475 11.2426H1.6743C2.1455 14.1284 2.91454 16.2939 4.1621 17.9199Z" fill="black" fill-opacity="0.6"/>
</g>
<defs>
<clipPath id="clip0_1216_30">
<rect width="30" height="24.0869" fill="white" transform="translate(0.5 0.456543)"/>
</clipPath>
</defs>
</svg>
