<svg width="36" height="15" viewBox="0 0 36 15" fill="none" xmlns="http://www.w3.org/2000/svg">
<g clip-path="url(#clip0_1_2676)">
<path fill-rule="evenodd" clip-rule="evenodd" d="M1.91846 8.55813H8.95947C9.57471 8.55813 10.1016 8.95404 10.2982 9.50661H16.0745L15.8581 8.36159C15.8097 8.10524 15.9777 7.86029 16.2341 7.81187C16.2625 7.80617 16.291 7.80332 16.3195 7.80332H35.0272C35.2864 7.80332 35.5 8.0141 35.5 8.27614C35.5 8.33026 35.4915 8.38153 35.4744 8.42995L34.7082 11.3295C34.4889 12.1641 34.1186 12.9502 33.5632 13.5028C33.0619 14.0041 32.4181 14.3174 31.6149 14.3174H19.5096C18.6893 14.3174 18.0114 13.9955 17.4902 13.4743C16.9347 12.9189 16.5673 12.1384 16.4106 11.2953L16.2511 10.4522H10.2982C10.1016 11.002 9.57471 11.4007 8.95947 11.4007H1.91846C1.14087 11.3979 0.5 10.7599 0.5 9.97943C0.5 9.19899 1.13802 8.55813 1.91846 8.55813ZM30.262 0.819275C30.4471 0.634135 30.7462 0.634135 30.9285 0.819275C31.1108 1.00441 31.1136 1.30349 30.9285 1.48578C30.4784 1.93581 30.6835 2.32033 30.9228 2.76752C31.3244 3.51947 31.7887 4.38251 31.0025 5.74115C30.8715 5.96617 30.5838 6.04307 30.3588 5.91205C30.1338 5.78103 30.0569 5.49335 30.1879 5.26833C30.7092 4.36257 30.3816 3.74733 30.0939 3.209C29.6781 2.43426 29.3192 1.76491 30.262 0.819275ZM26.7528 0.819275C26.938 0.634135 27.2371 0.634135 27.4194 0.819275C27.6016 1.00441 27.6045 1.30349 27.4194 1.48578C26.9693 1.93581 27.1744 2.32033 27.4137 2.76752C27.8153 3.51947 28.2795 4.38251 27.4934 5.74115C27.3624 5.96617 27.0747 6.04307 26.8497 5.91205C26.6247 5.78103 26.5478 5.49335 26.6788 5.26833C27.2 4.36257 26.8725 3.74733 26.5848 3.209C26.1689 2.43426 25.8101 1.76491 26.7528 0.819275ZM23.2466 0.819275C23.4317 0.634135 23.7308 0.634135 23.9131 0.819275C24.0982 1.00441 24.0982 1.30349 23.9131 1.48578C23.4631 1.93581 23.6681 2.32033 23.9074 2.76752C24.309 3.51947 24.7733 4.38251 23.9871 5.74115C23.8561 5.96617 23.5684 6.04307 23.3434 5.91205C23.1184 5.78103 23.0415 5.49335 23.1725 5.26833C23.6938 4.36257 23.3662 3.74733 23.0785 3.209C22.6598 2.43426 22.3009 1.76491 23.2466 0.819275ZM19.7375 0.819275C19.9226 0.634135 20.2217 0.634135 20.404 0.819275C20.5891 1.00441 20.5891 1.30349 20.404 1.48578C19.9539 1.93581 20.159 2.32033 20.3983 2.76752C20.7999 3.51947 21.2642 4.38251 20.478 5.74115C20.347 5.96617 20.0593 6.04307 19.8343 5.91205C19.6093 5.78103 19.5324 5.49335 19.6634 5.26833C20.1847 4.36257 19.8571 3.74733 19.5694 3.209C19.1536 2.43426 18.7947 1.76491 19.7375 0.819275ZM33.7996 11.0874L34.4176 8.74611H16.8892L17.3363 11.1216C17.4617 11.7824 17.7408 12.3891 18.1595 12.8078C18.5098 13.1581 18.9656 13.3746 19.5125 13.3746H31.6178C32.1447 13.3746 32.5662 13.1667 32.8995 12.8363C33.3267 12.4062 33.6201 11.7739 33.7996 11.0874Z" fill="black" fill-opacity="0.6"/>
</g>
<defs>
<clipPath id="clip0_1_2676">
<rect width="35" height="13.6348" fill="white" transform="translate(0.5 0.682617)"/>
</clipPath>
</defs>
</svg>
