<svg width="30" height="25" viewBox="0 0 30 25" fill="none" xmlns="http://www.w3.org/2000/svg">
<g clip-path="url(#clip0_1_2689)">
<path fill-rule="evenodd" clip-rule="evenodd" d="M22.4318 1.16439C23.716 1.50619 24.9416 2.09945 26.0134 2.86849C29.1604 5.12679 30.1027 7.91244 29.9929 11.7284C29.9343 13.7718 29.4606 15.7616 28.7819 17.1214C23.5109 27.6659 1.95088 25.7884 0.129588 15.847C0.000193368 15.139 -0.00713084 14.4041 0.00263478 13.4813C0.0172832 12.285 0.0368145 10.659 0.781443 9.69222C1.53584 8.70833 2.8664 8.31771 4.52168 8.264C6.33076 8.38851 8.00312 7.79525 9.58515 6.6014C13.6574 3.53011 16.3186 -0.461588 22.4318 1.16439ZM23.0593 12.4803C23.0593 13.4862 21.9021 14.2992 20.4738 14.2992C19.0456 14.2992 17.8884 13.4837 17.8884 12.4803C17.8884 11.4744 19.0456 10.6615 20.4738 10.6615C21.8996 10.6615 23.0593 11.4769 23.0593 12.4803ZM25.2297 8.58871C26.1354 9.31869 26.8703 10.2147 27.3073 11.2132C28.5085 13.9574 27.0485 16.4256 25.2175 18.4447C23.7478 19.8534 21.841 20.8128 19.4753 21.3084C17.3098 21.7601 14.7634 21.8236 11.819 21.4818C9.91963 21.262 8.30342 20.8641 6.95576 20.2928C5.40303 19.6336 2.91767 17.9222 2.33662 16.2743C1.88496 14.9901 2.56855 13.9012 4.64375 13.8914C11.924 14.016 12.7785 7.54867 18.76 6.69173C21.0793 6.35726 23.423 7.13119 25.2297 8.58871Z" fill="black" fill-opacity="0.6"/>
</g>
<defs>
<clipPath id="clip0_1_2689">
<rect width="30" height="23.4229" fill="white" transform="translate(0 0.788574)"/>
</clipPath>
</defs>
</svg>
